<?xml version="1.0" standalone="no"?>
<svg version="1.0" xmlns="http://www.w3.org/2000/svg"
 width="200.000000pt" height="200.000000pt" viewBox="0 0 200.000000 200.000000"
 preserveAspectRatio="xMidYMid meet">
<metadata>
</metadata>
<g transform="translate(0.000000,200.000000) scale(0.100000,-0.100000)"
fill="#000000" stroke="none">
<path d="M199 1882 c-67 -45 -89 -82 -89 -149 0 -36 7 -60 27 -91 15 -23 33
-42 39 -42 7 0 14 -5 16 -10 2 -6 14 -12 26 -15 13 -2 33 -7 44 -11 11 -3 39
-1 63 6 38 11 48 9 96 -13 30 -13 83 -37 119 -52 95 -41 141 -60 180 -78 19
-8 64 -27 100 -41 36 -15 74 -31 85 -36 50 -23 176 -79 180 -80 3 -1 30 -12
60 -25 70 -31 109 -32 129 -3 9 12 37 72 62 133 25 60 52 124 59 140 34 75 37
89 23 113 -15 29 -77 62 -117 62 -28 0 -71 -37 -71 -61 0 -5 -16 -43 -35 -85
-19 -41 -35 -80 -35 -85 0 -12 -6 -11 -28 1 -27 15 -152 70 -160 70 -4 0 -39
16 -78 35 -40 19 -90 40 -113 47 -22 7 -41 16 -41 20 0 5 -9 8 -19 8 -11 0
-22 4 -25 8 -3 5 -58 30 -123 56 -115 47 -119 49 -138 92 -20 44 -45 73 -83
93 -33 17 -123 13 -153 -7z m114 -74 c53 -28 64 -92 22 -133 -44 -45 -129 -21
-138 39 -11 72 56 126 116 94z"/>
<path d="M769 1880 c-8 -5 -28 -41 -44 -80 -25 -61 -27 -73 -14 -85 19 -19
382 -175 407 -175 14 0 27 18 52 75 18 41 30 80 27 87 -2 8 -81 46 -173 86
-246 104 -238 101 -255 92z"/>
<path d="M1654 1871 c-76 -34 -114 -112 -94 -193 6 -24 12 -48 12 -54 1 -6
-78 -197 -175 -425 -97 -228 -177 -426 -177 -440 0 -14 8 -33 18 -41 9 -8 95
-48 189 -88 205 -86 212 -86 250 -5 39 86 30 100 -101 156 -59 26 -109 49
-112 52 -3 3 63 164 145 359 l151 354 41 18 c43 19 83 71 94 123 8 40 -9 102
-37 138 -26 33 -91 65 -133 65 -16 0 -48 -9 -71 -19z m130 -102 c32 -38 33
-70 2 -105 -18 -21 -32 -28 -61 -28 -43 0 -85 39 -85 79 0 39 46 85 85 85 25
0 40 -8 59 -31z"/>
<path d="M327 1416 c-7 -8 -22 -35 -32 -62 -27 -71 -13 -88 110 -141 55 -23
104 -44 109 -46 10 -3 -282 -720 -296 -725 -133 -57 -153 -238 -34 -311 24
-15 50 -21 91 -21 69 0 113 23 147 78 27 43 30 121 7 167 -15 30 -13 36 157
445 95 228 173 424 174 436 0 38 -25 54 -192 124 -169 71 -215 81 -241 56z m4
-1085 c17 -18 29 -40 29 -56 0 -35 -50 -85 -85 -85 -35 0 -85 50 -85 85 0 16
12 38 29 56 18 17 40 29 56 29 16 0 38 -12 56 -29z"/>
<path d="M1667 1258 c-9 -18 -30 -67 -47 -108 -18 -41 -38 -88 -45 -105 -41
-93 -65 -157 -65 -172 0 -22 116 -76 151 -71 20 2 35 31 100 181 42 97 74 177
71 177 -3 0 -1 5 6 12 7 7 12 21 12 33 0 16 -16 28 -70 53 -39 18 -76 32 -83
32 -8 0 -21 -15 -30 -32z"/>
<path d="M254 1143 c-50 -114 -144 -351 -144 -365 0 -8 31 -27 72 -45 63 -27
76 -30 93 -19 18 12 101 196 88 196 -3 0 -1 6 5 13 20 24 83 181 80 200 -2 12
-26 28 -73 48 -38 16 -75 29 -82 29 -7 0 -25 -26 -39 -57z"/>
<path d="M712 743 c-12 -16 -30 -54 -42 -84 -12 -30 -32 -76 -44 -104 -13 -27
-34 -80 -47 -117 -20 -57 -21 -68 -9 -83 20 -24 64 -45 108 -51 49 -7 57 4
111 133 46 111 39 106 116 73 132 -58 184 -78 189 -73 3 4 6 2 6 -4 0 -5 19
-15 42 -22 23 -7 51 -19 62 -26 12 -7 68 -32 126 -55 160 -63 220 -92 220
-107 0 -26 30 -71 61 -93 112 -80 268 -7 271 127 3 125 -95 199 -227 169 -28
-6 -142 33 -307 107 -64 29 -101 44 -153 63 -27 10 -52 21 -55 24 -11 13 -338
143 -371 147 -31 4 -39 1 -57 -24z m1059 -422 c17 -18 29 -40 29 -56 0 -35
-50 -85 -85 -85 -16 0 -38 12 -56 29 -37 38 -38 79 -3 115 36 35 77 34 115 -3z"/>
<path d="M834 443 c-47 -112 -48 -114 -33 -128 23 -23 398 -177 417 -171 23 8
78 143 66 163 -12 19 -378 173 -410 173 -18 0 -28 -9 -40 -37z"/>
</g>
</svg>
